<mxfile host="app.diagrams.net" agent="Mozilla/5.0 (Windows NT 10.0; Win64; x64; rv:133.0) Gecko/20100101 Firefox/133.0" version="25.0.3">
  <diagram name="Page-1" id="LX0CDAO20Mw_NN6KQ0t8">
    <mxGraphModel dx="780" dy="480" grid="1" gridSize="10" guides="1" tooltips="1" connect="1" arrows="1" fold="1" page="1" pageScale="1" pageWidth="827" pageHeight="1169" math="0" shadow="0">
      <root>
        <mxCell id="0" />
        <mxCell id="1" parent="0" />
        <mxCell id="1BPI7WfftldyhFCkI25z-1" value="User" style="rounded=0;whiteSpace=wrap;html=1;" vertex="1" parent="1">
          <mxGeometry x="50" y="40" width="120" height="40" as="geometry" />
        </mxCell>
        <mxCell id="1BPI7WfftldyhFCkI25z-2" value="Online Store" style="rounded=0;whiteSpace=wrap;html=1;" vertex="1" parent="1">
          <mxGeometry x="260" y="40" width="110" height="40" as="geometry" />
        </mxCell>
        <mxCell id="1BPI7WfftldyhFCkI25z-3" value="PaymentGateway" style="rounded=0;whiteSpace=wrap;html=1;" vertex="1" parent="1">
          <mxGeometry x="440" y="40" width="110" height="40" as="geometry" />
        </mxCell>
        <mxCell id="1BPI7WfftldyhFCkI25z-5" value="Bank" style="rounded=0;whiteSpace=wrap;html=1;" vertex="1" parent="1">
          <mxGeometry x="660" y="40" width="90" height="40" as="geometry" />
        </mxCell>
        <mxCell id="1BPI7WfftldyhFCkI25z-7" value="" style="endArrow=none;html=1;rounded=0;entryX=0.5;entryY=1;entryDx=0;entryDy=0;" edge="1" parent="1" target="1BPI7WfftldyhFCkI25z-1">
          <mxGeometry width="50" height="50" relative="1" as="geometry">
            <mxPoint x="110" y="560" as="sourcePoint" />
            <mxPoint x="135" y="110" as="targetPoint" />
          </mxGeometry>
        </mxCell>
        <mxCell id="1BPI7WfftldyhFCkI25z-8" value="" style="endArrow=none;html=1;rounded=0;entryX=0.5;entryY=1;entryDx=0;entryDy=0;" edge="1" parent="1" target="1BPI7WfftldyhFCkI25z-2">
          <mxGeometry width="50" height="50" relative="1" as="geometry">
            <mxPoint x="315" y="560" as="sourcePoint" />
            <mxPoint x="340" y="110" as="targetPoint" />
          </mxGeometry>
        </mxCell>
        <mxCell id="1BPI7WfftldyhFCkI25z-9" value="" style="endArrow=none;html=1;rounded=0;entryX=0.5;entryY=1;entryDx=0;entryDy=0;" edge="1" parent="1" target="1BPI7WfftldyhFCkI25z-3">
          <mxGeometry width="50" height="50" relative="1" as="geometry">
            <mxPoint x="495" y="560" as="sourcePoint" />
            <mxPoint x="530" y="100" as="targetPoint" />
          </mxGeometry>
        </mxCell>
        <mxCell id="1BPI7WfftldyhFCkI25z-10" value="" style="endArrow=none;html=1;rounded=0;entryX=0.5;entryY=1;entryDx=0;entryDy=0;" edge="1" parent="1" target="1BPI7WfftldyhFCkI25z-5">
          <mxGeometry width="50" height="50" relative="1" as="geometry">
            <mxPoint x="705" y="560" as="sourcePoint" />
            <mxPoint x="710" y="100" as="targetPoint" />
          </mxGeometry>
        </mxCell>
        <mxCell id="1BPI7WfftldyhFCkI25z-12" value="Add Item to cart" style="text;html=1;align=center;verticalAlign=middle;resizable=0;points=[];autosize=1;strokeColor=none;fillColor=none;" vertex="1" parent="1">
          <mxGeometry x="150" y="130" width="110" height="30" as="geometry" />
        </mxCell>
        <mxCell id="1BPI7WfftldyhFCkI25z-15" value="" style="endArrow=classic;html=1;rounded=0;" edge="1" parent="1">
          <mxGeometry width="50" height="50" relative="1" as="geometry">
            <mxPoint x="120" y="160" as="sourcePoint" />
            <mxPoint x="310" y="160" as="targetPoint" />
          </mxGeometry>
        </mxCell>
        <mxCell id="1BPI7WfftldyhFCkI25z-16" value="Choose gift wrapping" style="text;html=1;align=center;verticalAlign=middle;resizable=0;points=[];autosize=1;strokeColor=none;fillColor=none;" vertex="1" parent="1">
          <mxGeometry x="135" y="200" width="140" height="30" as="geometry" />
        </mxCell>
        <mxCell id="1BPI7WfftldyhFCkI25z-17" value="" style="endArrow=classic;html=1;rounded=0;" edge="1" parent="1">
          <mxGeometry width="50" height="50" relative="1" as="geometry">
            <mxPoint x="110" y="230" as="sourcePoint" />
            <mxPoint x="310" y="230" as="targetPoint" />
          </mxGeometry>
        </mxCell>
        <mxCell id="1BPI7WfftldyhFCkI25z-18" value="Enter card details" style="text;html=1;align=center;verticalAlign=middle;resizable=0;points=[];autosize=1;strokeColor=none;fillColor=none;" vertex="1" parent="1">
          <mxGeometry x="140" y="280" width="120" height="30" as="geometry" />
        </mxCell>
        <mxCell id="1BPI7WfftldyhFCkI25z-19" value="" style="endArrow=classic;html=1;rounded=0;" edge="1" parent="1">
          <mxGeometry width="50" height="50" relative="1" as="geometry">
            <mxPoint x="110" y="300" as="sourcePoint" />
            <mxPoint x="310" y="300" as="targetPoint" />
          </mxGeometry>
        </mxCell>
        <mxCell id="1BPI7WfftldyhFCkI25z-21" value="Information for transfer" style="text;html=1;align=center;verticalAlign=middle;resizable=0;points=[];autosize=1;strokeColor=none;fillColor=none;" vertex="1" parent="1">
          <mxGeometry x="140" y="390" width="140" height="30" as="geometry" />
        </mxCell>
        <mxCell id="1BPI7WfftldyhFCkI25z-22" value="" style="endArrow=classic;html=1;rounded=0;" edge="1" parent="1">
          <mxGeometry width="50" height="50" relative="1" as="geometry">
            <mxPoint x="310" y="420" as="sourcePoint" />
            <mxPoint x="110" y="420" as="targetPoint" />
            <Array as="points" />
          </mxGeometry>
        </mxCell>
        <mxCell id="1BPI7WfftldyhFCkI25z-23" value="" style="endArrow=classic;html=1;rounded=0;" edge="1" parent="1">
          <mxGeometry width="50" height="50" relative="1" as="geometry">
            <mxPoint x="110" y="530" as="sourcePoint" />
            <mxPoint x="700" y="530" as="targetPoint" />
          </mxGeometry>
        </mxCell>
        <mxCell id="1BPI7WfftldyhFCkI25z-24" value="Payment with card" style="text;html=1;align=center;verticalAlign=middle;resizable=0;points=[];autosize=1;strokeColor=none;fillColor=none;" vertex="1" parent="1">
          <mxGeometry x="340" y="238" width="120" height="30" as="geometry" />
        </mxCell>
        <mxCell id="1BPI7WfftldyhFCkI25z-25" value="Pay with card" style="text;html=1;align=center;verticalAlign=middle;resizable=0;points=[];autosize=1;strokeColor=none;fillColor=none;" vertex="1" parent="1">
          <mxGeometry x="350" y="320" width="100" height="30" as="geometry" />
        </mxCell>
        <mxCell id="1BPI7WfftldyhFCkI25z-26" value="" style="endArrow=classic;html=1;rounded=0;" edge="1" parent="1">
          <mxGeometry width="50" height="50" relative="1" as="geometry">
            <mxPoint x="320" y="340" as="sourcePoint" />
            <mxPoint x="490" y="340" as="targetPoint" />
          </mxGeometry>
        </mxCell>
        <mxCell id="1BPI7WfftldyhFCkI25z-27" value="Payment with transfer" style="text;html=1;align=center;verticalAlign=middle;resizable=0;points=[];autosize=1;strokeColor=none;fillColor=none;" vertex="1" parent="1">
          <mxGeometry x="330" y="350" width="140" height="30" as="geometry" />
        </mxCell>
        <mxCell id="1BPI7WfftldyhFCkI25z-29" value="Pay with transfer" style="text;html=1;align=center;verticalAlign=middle;resizable=0;points=[];autosize=1;strokeColor=none;fillColor=none;" vertex="1" parent="1">
          <mxGeometry x="350" y="500" width="110" height="30" as="geometry" />
        </mxCell>
        <mxCell id="1BPI7WfftldyhFCkI25z-30" value="User" style="rounded=0;whiteSpace=wrap;html=1;" vertex="1" parent="1">
          <mxGeometry x="70" y="560" width="80" height="40" as="geometry" />
        </mxCell>
        <mxCell id="1BPI7WfftldyhFCkI25z-31" value="Online store" style="rounded=0;whiteSpace=wrap;html=1;" vertex="1" parent="1">
          <mxGeometry x="255" y="560" width="120" height="40" as="geometry" />
        </mxCell>
        <mxCell id="1BPI7WfftldyhFCkI25z-32" value="PaymentGateway" style="rounded=0;whiteSpace=wrap;html=1;" vertex="1" parent="1">
          <mxGeometry x="440" y="560" width="110" height="40" as="geometry" />
        </mxCell>
        <mxCell id="1BPI7WfftldyhFCkI25z-33" value="Bank" style="rounded=0;whiteSpace=wrap;html=1;" vertex="1" parent="1">
          <mxGeometry x="660" y="560" width="90" height="40" as="geometry" />
        </mxCell>
        <mxCell id="1BPI7WfftldyhFCkI25z-34" style="edgeStyle=orthogonalEdgeStyle;rounded=0;orthogonalLoop=1;jettySize=auto;html=1;exitX=0.5;exitY=1;exitDx=0;exitDy=0;" edge="1" parent="1" source="1BPI7WfftldyhFCkI25z-33" target="1BPI7WfftldyhFCkI25z-33">
          <mxGeometry relative="1" as="geometry" />
        </mxCell>
        <mxCell id="1BPI7WfftldyhFCkI25z-35" value="Text" style="text;strokeColor=none;align=center;fillColor=none;html=1;verticalAlign=middle;whiteSpace=wrap;rounded=0;" vertex="1" parent="1">
          <mxGeometry x="460" y="250" width="60" height="30" as="geometry" />
        </mxCell>
      </root>
    </mxGraphModel>
  </diagram>
</mxfile>
